<svg width="70" height="70" viewBox="0 0 70 70" fill="none" xmlns="http://www.w3.org/2000/svg">
<path d="M59.6433 59.6447H49.2715V43.4015C49.2715 39.5281 49.2024 34.5419 43.8771 34.5419C38.4751 34.5419 37.6486 38.7621 37.6486 43.1195V59.6436H27.2768V26.2409H37.2337V30.8058H37.3731C38.3695 29.102 39.8094 27.7004 41.5394 26.7502C43.2694 25.8 45.2248 25.3369 47.1971 25.4101C57.7094 25.4101 59.6476 32.3249 59.6476 41.3206L59.6433 59.6447ZM15.5739 21.675C14.3835 21.6752 13.2197 21.3224 12.2298 20.6612C11.2399 20 10.4683 19.0601 10.0125 17.9603C9.55677 16.8606 9.43736 15.6504 9.66939 14.4827C9.90142 13.3151 10.4745 12.2425 11.3161 11.4006C12.1577 10.5586 13.23 9.98516 14.3976 9.7527C15.5651 9.52024 16.7753 9.63923 17.8752 10.0946C18.9751 10.55 19.9152 11.3213 20.5768 12.311C21.2383 13.3007 21.5915 14.4644 21.5917 15.6549C21.5919 16.4453 21.4363 17.228 21.134 17.9583C20.8316 18.6887 20.3884 19.3523 19.8296 19.9113C19.2708 20.4703 18.6074 20.9138 17.8772 21.2164C17.147 21.5191 16.3643 21.6749 15.5739 21.675ZM20.7598 59.6447H10.3772V26.2409H20.7598V59.6447ZM64.8141 0.00476747H5.16538C3.81152 -0.0105113 2.50698 0.512349 1.53842 1.45845C0.569861 2.40456 0.0165231 3.6965 0 5.05039V64.9486C0.0159576 66.3031 0.56894 67.5959 1.53747 68.543C2.50599 69.4901 3.81085 70.014 5.16538 69.9996H64.8141C66.1713 70.0166 67.4798 69.4942 68.4521 68.5472C69.4245 67.6001 69.9812 66.3058 70 64.9486V5.04607C69.9806 3.6895 69.4236 2.39609 68.4512 1.45C67.4788 0.503922 66.1706 -0.0174458 64.8141 0.00044573" fill="#3E9D53"/>
</svg>
